<svg xmlns="http://www.w3.org/2000/svg" version="1.1" xmlns:xlink="http://www.w3.org/1999/xlink" xmlns:svgjs="http://svgjs.com/svgjs" width="512" height="512" x="0" y="0" viewBox="0 0 512 512" style="enable-background:new 0 0 512 512" xml:space="preserve" class=""><g><g><g><path d="m399 217c4.168-140.065-168.111-144.973-181.459-22.103 2.038 7.197 25.079 22.777 29.459 29.103 18 26 10.764 49.893 45 43 67.223-16.313 103.092 61.617 107-50z" fill="#ffd983" data-original="#ffd983" class=""></path><path d="m428 358c-15-16.529-29.055-21.721-50.443-24.363 9.917-70.313-75.373-84.89-117.485-42.756 14.681-137.285-191.072-146.881-201.072 4.119-1.322 19.956.656 28.503 1 29-24.285 42.563-68.126 96.523-12.063 118.262 56.063 21.738 108.314 26.584 149.563 36.223 78.72-3.506 305.5 15.515 230.5-120.485z" fill="#80aeff" data-original="#80aeff" class=""></path></g><g fill="#2e386b"><path d="m306.323 48.025c2.583 5.919 11.297 5.898 13.808-.132 1.692-3.929 3.15-9.587 4.397-13.683 1.603-7.365 5.73-14.588 3.698-22.278-5.904-19.979-36.331-11.145-30.602 8.895 2.678 8.984 5.166 18.473 8.699 27.198z" fill="#2e386b" data-original="#2e386b" class=""></path><path d="m491.948 201.425c-9.51 2.971-19.644 5.777-28.856 9.601-5.997 2.668-5.711 11.577.553 13.797 9.505 3.067 19.801 5.061 29.531 7.262 25.703 4.304 24.883-37.094-1.228-30.66z" fill="#2e386b" data-original="#2e386b" class=""></path><path d="m455.032 141.946c9.823-1.606 19.856-4.528 29.482-7.006 24.855-7.927 5.151-44.407-15.127-26.697-7.062 6.977-14.754 14.093-21.163 21.69-4.1 5.118.227 12.898 6.808 12.013z" fill="#2e386b" data-original="#2e386b" class=""></path><path d="m393.257 81.987c3.653-3.43 8.039-8.814 11.361-12.596 4.742-6.364 11.632-11.492 14.018-19.292 2.016-8.466-3.211-16.963-11.677-18.979-12.781-3.142-19.804 8.755-20.93 19.839-1.743 7.965-4.034 16.739-5.122 24.853-.809 6.689 7.409 10.891 12.35 6.175z" fill="#2e386b" data-original="#2e386b" class=""></path><path d="m215.151 66.744c7.591 4.927 23.578 16.022 25.022-.282-4.356-62.582-61.688-20.874-25.022.282z" fill="#2e386b" data-original="#2e386b" class=""></path><path d="m149.074 132.379c8.294 0 17.025.331 25.291-.554 6.173-.796 8.844-8.756 4.319-13.115-6.138-5.624-13.331-10.543-20.013-15.476-23.29-15.039-38.261 27.133-9.597 29.145z" fill="#2e386b" data-original="#2e386b" class=""></path><path d="m479.814 294.263c-11.246-2.949-22.946-6.365-34.421-8.436-6.738-1.036-11.147 7.233-6.386 12.243 10.389 9.002 20.24 20.523 32.66 26.553 19.87 5.235 27.979-24.946 8.147-30.36z" fill="#2e386b" data-original="#2e386b" class=""></path><path d="m281.51 412.811c-9.991 7.596-20.326 14.749-30.853 21.617.007-13.782-.045-27.476.32-40.825.297-9.238-7.926-16.795-17.115-15.674-21.882 3.773-10.689 30.232-9.965 44.99.359 2.46.721 4.952 1.083 7.458-16.191-9.05-33.128-16.339-51.562-19.71-33.144 7.119 20.865 42.047 34.042 43.789 2.474.629 4.933 1.302 7.385 2.002-1.707.999-3.411 2.005-5.121 2.997-8.338 4.71-16.882 8.962-26.166 11.591-7.77 1.961-11.072 12.014-5.859 18.175 3.962 4.897 11.143 5.656 16.04 1.693 11.16-8.672 23.865-14.666 36.606-20.59 1.414 11.768 2.626 23.462 3.448 34.646.795 8.244 12.511 8.609 13.802.396 1.435-11.589 2.193-23.447 2.599-35.402 1.775.888 3.541 1.799 5.287 2.751 10.066 5.177 20.282 10.614 29.702 16.909 9.676 6.092 18.809-7.373 9.66-14.122-10.601-6.482-21.038-13.627-31.543-20.761 11.219-5.26 22.46-10.453 33.848-15.527 9.061-3.858 12.15-15.802 6.029-23.551-5.196-6.773-14.897-8.049-21.667-2.852z" fill="#2e386b" data-original="#2e386b" class=""></path><path d="m388.756 336.122c-.928-13.865-2.62-28.53-8.359-41.306 51.022-46.412 38.27-134.987-13.65-176.259-72.359-60.876-157.712 18.045-164.377 61.288-42.509-15.126-95.17-6.259-131.937 30.098-4.193 3.884-5.68 9.593-4.456 14.784-.293.39-.573.767-.837 1.118-17.982 28.431-26.894 63.198-25.814 96.742-13.986 22.674-33.254 44.058-37.055 71.782 0 0 .159-1.201.16-1.201-12.817 48.075 27.095 83.091 71.7 88.315 13.18 1.477 26.939.794 39.55-3.497 9.149-3.218 7.218-16.66-2.528-17.114-35.21-1.005-88.776-19.931-81.428-63.226.691-24.71 16.336-43.73 27.89-64.753 1.994-4.336 3.137-9.364 1.942-14.088-1.361-24.536 4.663-60.38 19.694-82.38 4.502.479 9.173-1.017 12.59-4.5 54.436-59.298 157.358-33.057 159.58 52.573.697 10.025 13.604 14.284 20.109 6.46 4.063-4.896 8.85-9.055 14.487-11.921 27.983-13.297 73.158 2.434 79.86 35.304 4.53 11.397-.745 28.821 9.564 36.986 11.15 6.299 25.331 5.295 35.098 13.785 11.754 9.162 21.104 24.046 22.251 39.309 2.174 31.825-29.016 59.837-60.499 53.919-6.482-1.246-12.749 3.545-13.207 10.141.527 19.472 28.968 11.547 40.96 8.576 40.664-12.602 65.37-63.441 42.949-101.488-10.357-20.996-31.113-35.658-54.237-39.447zm-117.032-74.731c-5.22-29.27-20.483-51.703-41.016-66.676.67-1.392 1.144-2.906 1.372-4.517 5.8-42.512 51.362-78.29 94.227-68.221 61.792 15.519 94.151 113.549 41.524 155.061-25.258-22.978-65.606-33.218-96.107-15.647z" fill="#2e386b" data-original="#2e386b" class=""></path></g></g></g></svg>